<svg xmlns="http://www.w3.org/2000/svg" version="1.1" xmlns:xlink="http://www.w3.org/1999/xlink" xmlns:svgjs="http://svgjs.dev/svgjs" width="1000" height="1000" viewBox="0 0 1000 1000"><rect width="1000" height="1000" fill="#ffffff"></rect><g transform="matrix(0.7,0,0,0.7,149.57575757575756,396.0687648648446)"><svg viewBox="0 0 396 118" data-background-color="#ffffff" preserveAspectRatio="xMidYMid meet" height="297" width="1000" xmlns="http://www.w3.org/2000/svg" xmlns:xlink="http://www.w3.org/1999/xlink"><g id="tight-bounds" transform="matrix(1,0,0,1,0.2400000000000091,-0.010650572639065103)"><svg viewBox="0 0 395.52 118.02130114527813" height="118.02130114527813" width="395.52"><g><svg viewBox="0 0 605.7629442694737 180.75680336842103" height="118.02130114527813" width="395.52"><g transform="matrix(1,0,0,1,0,65.39819115789473)"><svg viewBox="0 0 395.52 49.960421052631574" height="49.960421052631574" width="395.52"><g id="textblocktransform"><svg viewBox="0 0 395.52 49.960421052631574" height="49.960421052631574" width="395.52" id="textblock"><g><svg viewBox="0 0 395.52 49.960421052631574" height="49.960421052631574" width="395.52"><g transform="matrix(1,0,0,1,0,0)"><svg width="395.52" viewBox="3 -35.4 280.23 35.4" height="49.960421052631574" data-palette-color="url(#06dfac08-35b9-443d-a95a-370e1ccdcd49)"></svg></g></svg></g></svg></g></svg></g><g transform="matrix(1,0,0,1,425.0061409010526,0)"><svg viewBox="0 0 180.75680336842103 180.75680336842103" height="180.75680336842103" width="180.75680336842103"><g><svg viewBox="0 0 180.75680336842103 180.75680336842103" height="180.75680336842103" width="180.75680336842103"><g transform="matrix(1,0,0,1,51.77130566056963,47.77361454840589)"><svg viewBox="0 0 77.21419204728177 85.20957427160926" height="85.20957427160926" width="77.21419204728177"><g><svg xmlns="http://www.w3.org/2000/svg" xmlns:xlink="http://www.w3.org/1999/xlink" version="1.1" x="0" y="0" viewBox="6.958374900579131 2.5 86.08462509942088 94.99852373720421" enable-background="new 0 0 100 100" xml:space="preserve" height="85.20957427160926" width="77.21419204728177" class="icon-z$-0" data-fill-palette-color="accent" id="z$-0"></svg></g></svg></g><g></g></svg></g></svg></g></svg></g><defs></defs><mask id="02502cf0-10b3-435f-83a4-8d084f703156"><g id="SvgjsG1034"><svg viewBox="0 0 395.52 118.02130114527813" height="118.02130114527813" width="395.52"><g><svg viewBox="0 0 605.7629442694737 180.75680336842103" height="118.02130114527813" width="395.52"><g transform="matrix(1,0,0,1,0,65.39819115789473)"><svg viewBox="0 0 395.52 49.960421052631574" height="49.960421052631574" width="395.52"><g id="SvgjsG1033"><svg viewBox="0 0 395.52 49.960421052631574" height="49.960421052631574" width="395.52" id="SvgjsSvg1032"><g><svg viewBox="0 0 395.52 49.960421052631574" height="49.960421052631574" width="395.52"><g transform="matrix(1,0,0,1,0,0)"><svg width="395.52" viewBox="3 -35.4 280.23 35.4" height="49.960421052631574" data-palette-color="url(#06dfac08-35b9-443d-a95a-370e1ccdcd49)"><path d="M20.95 0L4 0 4-27.35 3-32.35 4-35.4 20.95-35.4Q24.5-35.4 27.83-34.73 31.15-34.05 33.77-32.2 36.4-30.35 37.95-26.9 39.5-23.45 39.5-17.95L39.5-17.95Q39.5-12.45 37.93-8.93 36.35-5.4 33.7-3.45 31.05-1.5 27.75-0.75 24.45 0 20.95 0L20.95 0ZM15.1-25.9L15.1-9.5 18.9-9.5Q21.85-9.5 23.88-10.15 25.9-10.8 26.95-12.63 28-14.45 28-17.95L28-17.95Q28-21.5 26.93-23.18 25.85-24.85 23.83-25.38 21.8-25.9 18.9-25.9L18.9-25.9 15.1-25.9ZM56.05 0L45 0 45-27.4 44.5-32.4 45-35.4 56.05-35.4 56.05 0ZM71.05 0L59.55 0 61.95-8.45 61.95-14.8 65.64-16.3 72.65-35.35 87.7-35.35 96.25-12.95 100.09-5.85 100.09 0 89.25 0 86.75-7.45 73.2-7.45 71.05 0ZM79.65-26.15L76.5-16.2 84-16.2 80.7-26.15 79.65-26.15ZM126.59 0L104.59 0 104.59-27.4 103.59-32.4 104.59-35.4 123.59-35.4Q129.24-35.4 132.64-33.2 136.04-31 136.04-26.5L136.04-26.5Q136.04-24.05 135.17-22.48 134.29-20.9 132.94-19.8L132.94-19.8Q134.64-19.4 136.14-18.32 137.64-17.25 138.59-15.48 139.54-13.7 139.54-11.1L139.54-11.1Q139.54-5.85 136.47-2.93 133.39 0 126.59 0L126.59 0ZM115.59-25.9L115.59-21.65 121.49-21.65Q123.19-21.65 123.94-22.18 124.69-22.7 124.69-23.8L124.69-23.8Q124.69-24.95 123.59-25.43 122.49-25.9 120.99-25.9L120.99-25.9 115.59-25.9ZM115.59-14.2L115.59-9.5 124.09-9.5Q126.09-9.5 126.89-10.13 127.69-10.75 127.69-11.8L127.69-11.8Q127.69-14.2 124.59-14.2L124.59-14.2 115.59-14.2ZM156.54 0L145.04 0 145.04-27.35 144.54-32.35 145.04-35.4 156.04-35.4 156.04-21.85 166.49-21.85 166.49-35.4 177.49-35.4 177.49-16.6 177.99-13.15 177.99 0 166.49 0 166.49-12.7 156.04-12.7 156.04-9.2 156.54 0ZM212.94 0L184.99 0 183.99-3 184.99-8 184.99-35.4 210.74-35.4 213.24-33.9 209.94-25.4 205.44-25.9 196.09-25.9 196.09-21.9 208.44-21.9 208.44-13.65 201.54-13.65 196.09-14.15 196.09-9.5 209.94-9.5 215.89-3.2 212.94 0ZM245.84 0L219.89 0 218.89-3 219.89-8 219.89-35.4 230.89-35.4 230.89-16.35 230.39-9.5 231.39-9.5 240.34-10 243.89-10.5 248.29-3.2 245.84 0ZM263.28 0L252.28 0 252.28-27.35 251.28-32.4 252.28-35.4 270.28-35.4Q274.33-35.4 277.23-34.1 280.13-32.8 281.68-29.93 283.23-27.05 283.23-22.35L283.23-22.35Q283.23-15.3 279.46-12.23 275.68-9.15 268.78-9.15L268.78-9.15 263.28-9.15 263.28-8.05 263.78-3.05 263.28 0ZM262.78-25.9L263.28-18.5 266.18-18.5Q267.93-18.5 269.21-18.65 270.48-18.8 271.18-19.58 271.88-20.35 271.88-22.1L271.88-22.1Q271.88-23.95 271.13-24.75 270.38-25.55 269.06-25.73 267.73-25.9 265.98-25.9L265.98-25.9 262.78-25.9Z" opacity="1" transform="matrix(1,0,0,1,0,0)" fill="white" class="wordmark-text-0" id="SvgjsPath1031"></path></svg></g></svg></g></svg></g></svg></g><g transform="matrix(1,0,0,1,425.0061409010526,0)"><svg viewBox="0 0 180.75680336842103 180.75680336842103" height="180.75680336842103" width="180.75680336842103"><g><svg viewBox="0 0 180.75680336842103 180.75680336842103" height="180.75680336842103" width="180.75680336842103"><g transform="matrix(1,0,0,1,51.77130566056963,47.77361454840589)"><svg viewBox="0 0 77.21419204728177 85.20957427160926" height="85.20957427160926" width="77.21419204728177"><g><svg xmlns="http://www.w3.org/2000/svg" xmlns:xlink="http://www.w3.org/1999/xlink" version="1.1" x="0" y="0" viewBox="6.958374900579131 2.5 86.08462509942088 94.99852373720421" enable-background="new 0 0 100 100" xml:space="preserve" height="85.20957427160926" width="77.21419204728177" class="icon-z$-0" data-fill-palette-color="accent" id="SvgjsSvg1030"></svg></g></svg></g><g></g></svg></g></svg></g></svg></g><defs><mask></mask></defs></svg></g></mask><linearGradient x1="0.054" x2="0.941" y1="0.5" y2="0.5" id="06dfac08-35b9-443d-a95a-370e1ccdcd49"><stop stop-color="#0f3054" offset="0"></stop><stop stop-color="#3b8dcb" offset="0.498"></stop><stop stop-color="#0f3054" offset="1"></stop></linearGradient><rect width="395.52" height="118.02130114527813" fill="url(#06dfac08-35b9-443d-a95a-370e1ccdcd49)" mask="url(#02502cf0-10b3-435f-83a4-8d084f703156)" data-fill-palette-color="primary"></rect><mask id="2c73359c-7edb-4a4d-a5d2-7958f8a6bfeb"><g id="SvgjsG1043"><svg viewBox="0 0 395.52 118.02130114527813" height="118.02130114527813" width="395.52"><g><svg viewBox="0 0 605.7629442694737 180.75680336842103" height="118.02130114527813" width="395.52"><g transform="matrix(1,0,0,1,0,65.39819115789473)"><svg viewBox="0 0 395.52 49.960421052631574" height="49.960421052631574" width="395.52"><g id="SvgjsG1042"><svg viewBox="0 0 395.52 49.960421052631574" height="49.960421052631574" width="395.52" id="SvgjsSvg1041"><g><svg viewBox="0 0 395.52 49.960421052631574" height="49.960421052631574" width="395.52"><g transform="matrix(1,0,0,1,0,0)"><svg width="395.52" viewBox="3 -35.4 280.23 35.4" height="49.960421052631574" data-palette-color="url(#06dfac08-35b9-443d-a95a-370e1ccdcd49)"></svg></g></svg></g></svg></g></svg></g><g transform="matrix(1,0,0,1,425.0061409010526,0)"><svg viewBox="0 0 180.75680336842103 180.75680336842103" height="180.75680336842103" width="180.75680336842103"><g><svg viewBox="0 0 180.75680336842103 180.75680336842103" height="180.75680336842103" width="180.75680336842103"><g transform="matrix(1,0,0,1,51.77130566056963,47.77361454840589)"><svg viewBox="0 0 77.21419204728177 85.20957427160926" height="85.20957427160926" width="77.21419204728177"><g><svg xmlns="http://www.w3.org/2000/svg" xmlns:xlink="http://www.w3.org/1999/xlink" version="1.1" x="0" y="0" viewBox="6.958374900579131 2.5 86.08462509942088 94.99852373720421" enable-background="new 0 0 100 100" xml:space="preserve" height="85.20957427160926" width="77.21419204728177" class="icon-z$-0" data-fill-palette-color="accent" id="SvgjsSvg1040"><polyline points="79.769,2.5 74.842,8.03 77.742,10.617 69.475,19.489 71.518,21.328 79.579,12.335 83.167,15.442 74.916,24.386   76.944,26.212 85.031,17.126 88.115,19.853 93.043,14.319 79.769,2.5 " fill="white"></polyline><path d="M84.208 32.748L62.939 13.609c-0.881-0.792-2.617-0.289-3.886 1.121-1.269 1.411-1.589 3.191-0.71 3.979l5.008 4.507L36.393 53.83c0 0-3.191 3.022-3.552 5.61-0.249 1.946 0.278 3.805 1.304 5.304-0.805-0.027-1.608 0.249-2.22 0.86l-3.857 3.802c-1.11 1.083-1.221 2.746-0.36 3.969l-0.271-0.465c0 0-19.709 21.75-20.153 22.191-0.416 0.444-0.471 1.417 0.056 1.916 1.915 1.333 2.636-0.388 3.801-1.693L29.542 74.6 28.928 74.4c1.138 0.5 2.497 0.306 3.442-0.61l3.856-3.801c0.778-0.749 1.056-1.776 0.861-2.775 0.693 0.332 1.416 0.554 2.221 0.638 2.802 0.389 5.466-0.805 7.049-2.941l27.989-31.802-2.062-1.855L47.659 59.088l-6.965-6.227 24.554-27.94 0 0 14.366 12.93c0.881 0.787 2.62 0.289 3.89-1.121C84.771 35.32 85.086 33.538 84.208 32.748" fill="white"></path></svg></g></svg></g><g><path d="M17.306 64.674l-2.376 6.537-10.554-3.836-2.065-0.312-1.038-0.816 2.375-6.536c0.331-0.912 0.74-1.763 1.227-2.555 0.481-0.793 1.083-1.443 1.808-1.948 0.716-0.501 1.593-0.788 2.629-0.86 1.033-0.08 2.257 0.137 3.672 0.651v0c1.415 0.514 2.501 1.14 3.258 1.878 0.759 0.731 1.267 1.528 1.523 2.39 0.254 0.868 0.321 1.761 0.201 2.679-0.114 0.92-0.334 1.829-0.66 2.728zM6.498 63.299l6.319 2.296 0.532-1.462c0.276-0.761 0.428-1.432 0.454-2.013 0.018-0.577-0.157-1.086-0.524-1.526-0.373-0.442-1.01-0.826-1.909-1.152v0c-0.912-0.331-1.635-0.437-2.17-0.319-0.534 0.119-0.961 0.412-1.28 0.88-0.322 0.474-0.619 1.085-0.891 1.834v0z" fill="white"></path><path d="M30.97 41.029l-2.805 3.565-8.842-6.955-1.733-1.108-0.846-0.921 2.804-3.565z" fill="white"></path><path d="M45.386 28.489l-3.977 2.553-1.04-3.458-1.405-2.187 0.939-1.343-1.808-8.129 5.202-3.34 7.922 5.838 2.904 1.606 1.296 2.018-3.75 2.407-2.515-2.022-4.678 3.004zM42.557 17.544l1.118 4.137 2.592-1.665-3.347-2.705z" fill="white"></path><path d="M77.995 15.103l-8.848 1.814-2.26-11.02-0.815-1.923 0.155-1.292 7.639-1.567c1.514-0.311 2.787-0.264 3.819 0.139 1.032 0.403 1.672 1.207 1.919 2.414v0c0.134 0.655 0.127 1.22-0.021 1.694-0.143 0.467-0.368 0.885-0.675 1.255v0c0.48 0.011 0.95 0.119 1.409 0.326 0.466 0.205 0.872 0.521 1.219 0.949 0.354 0.426 0.602 0.986 0.744 1.681v0c0.289 1.409 0.104 2.588-0.555 3.535-0.664 0.956-1.908 1.621-3.73 1.995zM71.436 5.599l0.348 1.701 2.37-0.486c0.452-0.093 0.766-0.229 0.94-0.408 0.174-0.186 0.23-0.426 0.17-0.721v0c-0.063-0.308-0.255-0.494-0.575-0.558-0.32-0.064-0.684-0.054-1.091 0.028v0zM72.399 10.298l0.387 1.888 3.412-0.7c0.537-0.11 0.897-0.269 1.08-0.477 0.181-0.215 0.243-0.463 0.185-0.745v0c-0.132-0.642-0.614-0.878-1.446-0.708v0z" fill="white"></path><path d="M102.93 15.118l-4.66-0.792 1.881-11.071 0.145-2.052 0.408-1.203 4.452 0.756-0.931 5.482 4.234 0.719 0.931-5.481 4.453 0.756-1.293 7.609-0.039 1.428-0.904 5.323-4.65-0.79 0.874-5.145-4.235-0.719-0.242 1.425z" fill="white"></path><path d="M136.034 28.363l-9.873-5.84 0.274-1.272 1.397-1.552 5.727-9.683 9.096 5.38 0.569 1.048-2.944 2.316-1.487-1.113-3.3-1.952-0.833 1.408 4.363 2.58-1.727 2.92-2.436-1.441-1.819-1.32-0.971 1.641 4.889 2.891 0.79 3.476z" fill="white"></path><path d="M154.674 47.023l-6.823-8.175 0.684-1.107 1.835-0.996 8.637-7.209 2.894 3.467-6.002 5.01-2.292 1.639 0.263 0.316 2.508 2.691 1.094 0.982-1.146 3.31z" fill="white"></path><path d="M163.827 64.89l-1.568-4.235 10.531-3.899 1.796-1.104 1.3-0.043 2.565 6.927c0.386 1.042 0.549 1.994 0.49 2.858-0.056 0.87-0.381 1.639-0.975 2.308-0.585 0.673-1.484 1.234-2.694 1.683v0c-1.807 0.669-3.286 0.664-4.437-0.016-1.148-0.674-2.05-1.895-2.705-3.665v0l-0.784-2.117-0.423 0.157-1.85 0.899zM173.72 61.002l-2.769 1.25 0.411 1.111c0.167 0.452 0.33 0.834 0.489 1.146 0.158 0.312 0.372 0.522 0.639 0.63 0.26 0.104 0.615 0.072 1.067-0.096v0c0.477-0.177 0.781-0.396 0.912-0.658 0.135-0.271 0.162-0.584 0.081-0.94-0.082-0.355-0.206-0.758-0.374-1.21v0z" fill="white"></path><path d="M8.198 124.171l-2.379-6.546 10.564-3.84 1.792-1.089 1.32-0.042 2.38 6.545c0.334 0.918 0.568 1.837 0.702 2.756 0.141 0.917 0.095 1.799-0.138 2.645-0.231 0.853-0.717 1.642-1.457 2.367-0.743 0.718-1.824 1.336-3.245 1.852v0c-1.415 0.514-2.649 0.732-3.704 0.652-1.058-0.071-1.963-0.358-2.715-0.86-0.75-0.496-1.373-1.134-1.871-1.915-0.503-0.778-0.92-1.62-1.249-2.525zM17.386 118.279l-6.338 2.304 0.531 1.462c0.277 0.761 0.595 1.371 0.954 1.831 0.353 0.462 0.815 0.743 1.385 0.843 0.57 0.099 1.304-0.015 2.204-0.342v0c0.918-0.334 1.541-0.717 1.867-1.149 0.333-0.434 0.471-0.937 0.414-1.506-0.051-0.572-0.213-1.232-0.485-1.981v0z" fill="white"></path><path d="M23.357 150.497l-2.811-3.572 8.849-6.963 1.493-1.43 1.094-0.605 2.811 3.573z" fill="white"></path><path d="M40.147 165.192l-3.986-2.56 2.712-2.385 1.41-2.196 1.611 0.296 6.654-5.031 5.21 3.346-2.022 9.65-0.247 3.3-1.301 2.027-3.75-2.408 0.793-3.128-4.687-3.01zM48.927 158.056l-3.296 2.737 2.592 1.665 1.067-4.169z" fill="white"></path><path d="M76.046 179.918l-8.858-1.817 2.262-11.031 0.011-2.098 0.651-1.126 7.648 1.569c1.521 0.312 2.676 0.856 3.466 1.632 0.79 0.777 1.061 1.771 0.812 2.984v0c-0.134 0.655-0.363 1.169-0.685 1.54-0.323 0.378-0.695 0.677-1.116 0.898v0c0.437 0.199 0.826 0.484 1.167 0.854 0.347 0.372 0.6 0.823 0.757 1.354 0.151 0.53 0.155 1.142 0.012 1.836v0c-0.289 1.409-0.924 2.423-1.904 3.041-0.987 0.617-2.395 0.738-4.223 0.364zM73.751 168.577l-0.351 1.711 2.379 0.488c0.459 0.094 0.801 0.092 1.026-0.005 0.233-0.103 0.379-0.301 0.44-0.596v0c0.063-0.308-0.04-0.555-0.31-0.74-0.268-0.192-0.602-0.328-1.001-0.41v0zM72.785 173.286l-0.389 1.898 3.431 0.704c0.537 0.11 0.928 0.102 1.173-0.026 0.25-0.119 0.404-0.32 0.462-0.602v0c0.133-0.649-0.217-1.059-1.049-1.229v0z" fill="white"></path><path d="M104.542 179.965l-4.66 0.792-1.882-11.081-0.543-1.995-0.012-1.27 4.462-0.758 0.933 5.491 4.235-0.72-0.933-5.491 4.462-0.758 1.294 7.619 0.435 1.361 0.906 5.333-4.66 0.792-0.874-5.145-4.235 0.719 0.241 1.415z" fill="white"></path><path d="M140.976 165.501l-9.89 5.85-0.983-0.853-0.693-1.98-5.732-9.692 9.113-5.39 1.193 0.006 0.617 3.704-1.697 0.759-3.308 1.956 0.838 1.417 4.362-2.58 1.726 2.92-2.435 1.44-2.034 0.958 0.976 1.65 4.898-2.897 3.425 0.982z" fill="white"></path><path d="M162.12 144.71l-6.837 8.19-1.211-0.476-1.316-1.634-8.644-7.216 2.894-3.467 6.009 5.017 2.037 1.961 0.263-0.316 2.199-2.962 0.778-1.246 3.461 0.536z" fill="white"></path><path d="M172.911 124.019l-1.569 4.235-10.54-3.904-2.091-0.335-1.015-0.815 2.569-6.936c0.386-1.041 0.883-1.874 1.492-2.497 0.609-0.623 1.357-0.996 2.244-1.117 0.889-0.127 1.939 0.033 3.15 0.482v0c1.807 0.669 2.926 1.636 3.356 2.901 0.43 1.265 0.318 2.783-0.338 4.552v0l-0.788 2.127 0.424 0.157 2.002 0.517zM162.856 120.509l2.921 0.868 0.415-1.12c0.167-0.452 0.293-0.848 0.376-1.188 0.083-0.34 0.058-0.638-0.076-0.895-0.133-0.256-0.423-0.467-0.868-0.631v0c-0.477-0.177-0.855-0.206-1.134-0.089-0.279 0.118-0.503 0.338-0.673 0.661-0.169 0.323-0.338 0.71-0.505 1.161v0z" fill="white"></path><path d="M1.491 92.762c0-3.066 2.485-5.551 5.551-5.551 3.066 0 5.551 2.485 5.551 5.551 0 3.066-2.485 5.551-5.551 5.551-3.066 0-5.551-2.485-5.551-5.551z" fill="white"></path><path d="M168.382 92.762c0-3.066 2.485-5.551 5.551-5.551 3.066 0 5.551 2.485 5.551 5.551 0 3.066-2.485 5.551-5.551 5.551-3.066 0-5.551-2.485-5.551-5.551z" fill="white"></path></g></svg></g></svg></g></svg></g><defs><mask></mask></defs><mask><g id="SvgjsG1039"><svg viewBox="0 0 395.52 118.02130114527813" height="118.02130114527813" width="395.52"><g><svg viewBox="0 0 605.7629442694737 180.75680336842103" height="118.02130114527813" width="395.52"><g transform="matrix(1,0,0,1,0,65.39819115789473)"><svg viewBox="0 0 395.52 49.960421052631574" height="49.960421052631574" width="395.52"><g id="SvgjsG1038"><svg viewBox="0 0 395.52 49.960421052631574" height="49.960421052631574" width="395.52" id="SvgjsSvg1037"><g><svg viewBox="0 0 395.52 49.960421052631574" height="49.960421052631574" width="395.52"><g transform="matrix(1,0,0,1,0,0)"><svg width="395.52" viewBox="3 -35.4 280.23 35.4" height="49.960421052631574" data-palette-color="url(#06dfac08-35b9-443d-a95a-370e1ccdcd49)"></svg></g></svg></g></svg></g></svg></g><g transform="matrix(1,0,0,1,425.0061409010526,0)"><svg viewBox="0 0 180.75680336842103 180.75680336842103" height="180.75680336842103" width="180.75680336842103"><g><svg viewBox="0 0 180.75680336842103 180.75680336842103" height="180.75680336842103" width="180.75680336842103"><g transform="matrix(1,0,0,1,51.77130566056963,47.77361454840589)"><svg viewBox="0 0 77.21419204728177 85.20957427160926" height="85.20957427160926" width="77.21419204728177"><g><svg xmlns="http://www.w3.org/2000/svg" xmlns:xlink="http://www.w3.org/1999/xlink" version="1.1" x="0" y="0" viewBox="6.958374900579131 2.5 86.08462509942088 94.99852373720421" enable-background="new 0 0 100 100" xml:space="preserve" height="85.20957427160926" width="77.21419204728177" class="icon-z$-0" data-fill-palette-color="accent" id="SvgjsSvg1035"></svg></g></svg></g><g></g></svg></g></svg></g></svg></g><defs><mask></mask></defs></svg></g></mask></svg></g></mask><linearGradient x1="0.054" x2="0.941" y1="0.5" y2="0.5" id="9443a5e0-743b-498a-a1c5-fe72d8d08d06"><stop stop-color="#0f3054" offset="0"></stop><stop stop-color="#3b8dcb" offset="0.498"></stop><stop stop-color="#0f3054" offset="1"></stop></linearGradient><rect width="395.52" height="118.02130114527813" fill="url(#9443a5e0-743b-498a-a1c5-fe72d8d08d06)" mask="url(#2c73359c-7edb-4a4d-a5d2-7958f8a6bfeb)" data-fill-palette-color="accent"></rect></svg><rect width="395.52" height="118.02130114527813" fill="none" stroke="none" visibility="hidden"></rect></g></svg></g></svg>